<?xml version="1.0" standalone="no"?>
<!DOCTYPE svg PUBLIC "-//W3C//DTD SVG 20010904//EN"
 "http://www.w3.org/TR/2001/REC-SVG-20010904/DTD/svg10.dtd">
<svg version="1.0" xmlns="http://www.w3.org/2000/svg"
 width="192.000000pt" height="192.000000pt" viewBox="0 0 192.000000 192.000000"
 preserveAspectRatio="xMidYMid meet">
<metadata>
Created by potrace 1.11, written by Peter Selinger 2001-2013
</metadata>
<g transform="translate(0.000000,192.000000) scale(0.100000,-0.100000)"
fill="#000000" stroke="none">
<path d="M2 1672 l3 -237 90 -1 c137 -1 213 -32 300 -120 30 -30 55 -61 55
-69 0 -8 4 -15 9 -15 7 0 34 -54 41 -82 1 -4 6 -22 11 -40 6 -18 13 -49 16
-68 11 -66 5 -200 -10 -200 -4 0 -6 -4 -3 -9 7 -11 -14 -74 -28 -83 -6 -4 -8
-8 -3 -8 4 0 1 -12 -7 -27 -16 -31 -106 -150 -106 -140 0 3 -14 -7 -32 -23
-17 -16 -34 -27 -38 -25 -4 2 -18 -3 -31 -13 -32 -22 -38 -23 -159 -25 l-105
-2 -3 -240 -2 -240 955 0 c525 0 955 4 955 8 0 4 -12 36 -26 70 -15 34 -31 73
-37 87 -6 14 -10 28 -9 33 1 4 -3 7 -8 7 -6 0 -10 6 -9 13 2 6 -6 30 -16 52
-62 137 -75 167 -75 180 0 8 -6 17 -12 22 -7 4 -204 8 -438 9 -234 1 -431 2
-438 3 -9 1 -7 12 7 40 11 21 17 41 14 45 -4 3 -1 6 6 6 7 0 10 4 6 9 -3 5 -1
12 4 15 9 6 26 74 22 90 -6 27 38 31 365 30 187 0 338 4 341 9 3 5 0 14 -6 20
-6 6 -11 21 -11 34 0 13 -4 23 -9 23 -8 0 -18 24 -27 65 -3 10 -9 22 -16 26
-6 4 -7 12 -4 18 4 6 3 11 -1 11 -5 0 -15 17 -22 38 -8 20 -21 55 -31 77 -10
22 -28 65 -41 95 l-24 56 -248 -1 c-155 0 -251 4 -255 10 -4 6 -7 17 -8 25 0
8 -3 22 -7 30 -3 8 -13 38 -22 65 -9 28 -23 60 -31 73 -8 12 -13 26 -10 30 2
4 112 7 244 7 224 0 239 1 234 17 -2 10 -8 18 -13 18 -5 0 -9 6 -9 12 0 19
-43 122 -55 130 -5 4 -7 8 -4 8 6 0 -97 250 -114 277 -6 9 -146 12 -562 12
l-555 0 2 -237z"/>
</g>
</svg>
